<?xml version="1.0"?>
<svg xmlns="http://www.w3.org/2000/svg" id="Layer_1" data-name="Layer 1" viewBox="0 0 512 512" width="512" height="512"><title>Check list</title><path fill="#fff" d="M85.2,182.146a23.128,23.128,0,1,0,23.128,23.128A23.153,23.153,0,0,0,85.2,182.146Zm0,32.255a9.128,9.128,0,1,1,9.128-9.127A9.137,9.137,0,0,1,85.2,214.4Z"/><path fill="#fff" d="M26,149h.009l15.887-.1C34.7,155.752,30.2,165.86,30.2,177.376a6.661,6.661,0,0,0,.055.859l9.1,71.755A22.521,22.521,0,0,0,57,271.51V293.4A14.614,14.614,0,0,0,71.748,308H95.374A14.51,14.51,0,0,0,110,293.4V272H294V428.944A29.727,29.727,0,0,0,323.889,459H462.627A30.138,30.138,0,0,0,493,428.944V224.318A30.36,30.36,0,0,0,462.627,194H437.381c-2.578-11-12.12-18-23.47-18H392.72a38.538,38.538,0,0,0-12.1-26.9l16.353-.128a7.1,7.1,0,0,0,6.99-7.43,59.22,59.22,0,0,0-2.841-14.341c-3.49-10.47-14.4-17.242-27.8-17.242-7.435,0-20.557-.05-27.222-.075L333.876,87.516C324.873,71.374,311.7,53,289.589,53h-154.9C116.7,53,100.8,65.174,89.873,87.579L77.139,110.063c-6.674-.013-20-.077-27.486-.077-13.4,0-24.314,6.745-27.8,17.214a59.02,59.02,0,0,0-2.841,14.317,7.166,7.166,0,0,0,1.928,5.242A7.069,7.069,0,0,0,26,149ZM96,293.4c0,.431-.2.6-.626.6H71.748c-.43,0-.748-.166-.748-.6V272H96Zm198-69.085V258H61.9a8.544,8.544,0,0,1-8.56-8.531,6.739,6.739,0,0,0-.056-.864L44.206,176.91c.185-13.981,9.636-22.441,19.148-23.085a7.226,7.226,0,0,0,1.034.175H357.969c.052,0,.1.165.155.165C370.188,154.165,377.9,165,378.69,176h-6.085c-11.35,0-20.892,7-23.47,18H323.889A29.95,29.95,0,0,0,294,224.318ZM258.71,140a25.254,25.254,0,0,1,49.1,0Zm178.406,68h25.511A16.345,16.345,0,0,1,479,224.318V428.944A16.123,16.123,0,0,1,462.627,445H323.889A15.715,15.715,0,0,1,308,428.944V224.318C308,215.29,314.861,208,323.889,208H349.4a23.886,23.886,0,0,0,23.205,17h41.306A23.886,23.886,0,0,0,437.116,208Zm-23.277-18A10.161,10.161,0,0,1,424,200.161v1.678A10.161,10.161,0,0,1,413.839,212H372.161A10.161,10.161,0,0,1,362,201.839v-1.678A10.161,10.161,0,0,1,372.161,190Zm-40.524-66.054c7.159,0,13,3.079,14.523,7.662.371,1.114.679,2.2.935,3.239l-29.127.01L353.7,123.9C360.282,123.924,368.163,123.946,373.315,123.946ZM102.17,94.2c.072-.127.139-.142.2-.272C107.271,83.831,117.982,67,134.687,67h154.9c11.724,0,21.313,8.151,32.021,27.351L346.413,140H322.068a39.261,39.261,0,0,0-77.62,0H76.376ZM35.13,131.608c1.528-4.583,7.364-7.662,14.523-7.662,5.13,0,13,.012,19.594.023L63.138,134.8l-28.94.037C34.453,133.805,34.76,132.718,35.13,131.608Z"/><path fill="#fff" d="M287.652,194.317C283.937,183.4,271.99,175,260.453,175H162.109c-11.573,0-23.452,8.456-27.046,19.458l-4.925,15a7.384,7.384,0,0,0,.988,6.466A7.181,7.181,0,0,0,136.792,219H286.175a7.223,7.223,0,0,0,5.691-3.146,7.063,7.063,0,0,0,.936-6.361ZM146.442,205l1.93-5.974c1.7-5.214,8.251-10.026,13.737-10.026h98.344c5.52,0,12.167,4.821,13.944,10.048l2,5.952Z"/><path fill="#fff" d="M269.153,231H153.015a7,7,0,0,0,0,14H269.153a7,7,0,0,0,0-14Z"/><path fill="#fff" d="M332.048,296h7.42a7,7,0,1,0,0-14H339V263h19.8c.931,2,3.333,4.546,6.419,4.546A7.012,7.012,0,0,0,372,260.323v-4.768A6.271,6.271,0,0,0,365.436,249H332.048c-3.866,0-7.048,2.688-7.048,6.555v33.386A7.091,7.091,0,0,0,332.048,296Z"/><path fill="#fff" d="M332,360h33a7,7,0,0,0,7-7V320a7,7,0,0,0-7-7H332a7,7,0,0,0-7,7v33A7,7,0,0,0,332,360Zm7-33h19v20H339Z"/><path fill="#fff" d="M339.469,412H339V392h19.438a6.847,6.847,0,0,0,6.78,7.026,6.651,6.651,0,0,0,6.782-6.8v-6.829c0-3.867-2.7-7.394-6.564-7.394H332.048A7.387,7.387,0,0,0,325,385.394V418.78a7.232,7.232,0,0,0,7.048,7.22h7.421a7,7,0,1,0,0-14Z"/><path fill="#fff" d="M381.816,257.2,361,278.017l-6.377-6.377a7,7,0,0,0-9.9,9.9l11.326,11.326a7,7,0,0,0,9.9,0l25.77-25.771a7,7,0,1,0-9.9-9.9Z"/><path fill="#fff" d="M381.816,388.06,361,408.881l-6.377-6.377a7,7,0,0,0-9.9,9.9l11.326,11.326a7,7,0,0,0,9.9,0l25.771-25.77a7,7,0,0,0-9.9-9.9Z"/><path fill="#fff" d="M402.952,272a7,7,0,0,0,7,7h44.516a7,7,0,1,0,0-14H409.952A7,7,0,0,0,402.952,272Z"/><path fill="#fff" d="M454.468,330H409.952a7,7,0,0,0,0,14h44.516a7,7,0,1,0,0-14Z"/><path fill="#fff" d="M454.468,395H409.952a7,7,0,0,0,0,14h44.516a7,7,0,1,0,0-14Z"/></svg>
