<?xml version="1.0"?>
<svg xmlns="http://www.w3.org/2000/svg" viewBox="0 0 512 512" width="512" height="512"><g id="Out_line" data-name="Out line"><path fill="#fff" d="M456,56H56A40.04552,40.04552,0,0,0,16,96V344a40.04552,40.04552,0,0,0,40,40H216v32a24.02718,24.02718,0,0,1-24,24,8,8,0,0,0,0,16H320a8,8,0,0,0,0-16,24.02718,24.02718,0,0,1-24-24V384H456a40.04552,40.04552,0,0,0,40-40V96A40.04552,40.04552,0,0,0,456,56ZM56,72H456a24.0275,24.0275,0,0,1,24,24V320H464V104a16.01833,16.01833,0,0,0-16-16H64a16.01833,16.01833,0,0,0-16,16V320H32V96A24.0275,24.0275,0,0,1,56,72ZM448,320H64V104H448ZM288.019,440H223.981A39.79461,39.79461,0,0,0,232,416V384h48v32A39.79461,39.79461,0,0,0,288.019,440ZM456,368H56a24.0275,24.0275,0,0,1-24-24v-8H480v8A24.0275,24.0275,0,0,1,456,368Z"/><circle fill="#fff" cx="256" cy="352" r="8"/><path fill="#fff" d="M149.64844,197.54492A33.32949,33.32949,0,0,0,153.3291,264h.04706a23.99494,23.99494,0,0,0,45.24768,0H313.37616a23.9948,23.9948,0,0,0,45.253-.01562,33.98108,33.98108,0,0,0,4.97144-67.49512l-22.01075-3.668A71.25574,71.25574,0,0,0,276.919,152H250.144a45.52748,45.52748,0,0,0-35.72558,17.1709L195.82324,192.415ZM176,264a8,8,0,1,1,8-8A8.00917,8.00917,0,0,1,176,264Zm160,0a8,8,0,1,1,8-8A8.00917,8.00917,0,0,1,336,264Zm-7.42773-61.02832a8.0017,8.0017,0,0,0,6.11279,4.91992l26.28515,4.37988a17.97545,17.97545,0,0,1-2.35668,35.69825A23.99523,23.99523,0,0,0,313.37616,248H198.62384a23.99494,23.99494,0,0,0-45.24768,0h-.04706a17.32937,17.32937,0,0,1-1.91357-34.55273L200.44385,208H296V192H281.75861l4.63842-23.19214A55.31766,55.31766,0,0,1,328.57227,202.97168ZM226.9126,179.165A29.60488,29.60488,0,0,1,250.144,168h20.09735l-4.8,24H216.64465Z"/><path fill="#fff" d="M186.34326,181.65723l11.31348-11.31446-40-40A8.00035,8.00035,0,0,0,152,128H96v16h52.68652Z"/><path fill="#fff" d="M132.68652,288H96v16h40a8.00035,8.00035,0,0,0,5.65674-2.34277l16-16-11.31348-11.31446Z"/><path fill="#fff" d="M114.34326,205.65723l11.31348-11.31446-16-16A8.00035,8.00035,0,0,0,104,176H80v16h20.68652Z"/><path fill="#fff" d="M394.34326,170.34277l-16,16,11.31348,11.31446L403.31348,184H432V168H400A8.00035,8.00035,0,0,0,394.34326,170.34277Z"/><path fill="#fff" d="M269.65674,274.34277l-11.31348,11.31446,16,16A8.00035,8.00035,0,0,0,280,304h32V288H283.31348Z"/><path fill="#fff" d="M397.65674,258.34277l-11.31348,11.31446,16,16A8.00035,8.00035,0,0,0,408,288h24V272H411.31348Z"/><path fill="#fff" d="M347.31348,136H400V120H344a8.00035,8.00035,0,0,0-5.65674,2.34277l-24,24,11.31348,11.31446Z"/></g></svg>
