<?xml version="1.0" encoding="utf-8"?>
<!-- Generator: Adobe Illustrator 23.0.3, SVG Export Plug-In . SVG Version: 6.00 Build 0)  -->
<svg version="1.1" id="Слой_1" xmlns="http://www.w3.org/2000/svg" xmlns:xlink="http://www.w3.org/1999/xlink" x="0px" y="0px"
	 viewBox="0 0 12.6 12.5" style="enable-background:new 0 0 12.6 12.5;" xml:space="preserve">
<style type="text/css">
	.st0{fill:#F6630A;}
</style>
<image style="display:none;overflow:visible;" width="13" height="13" xlink:href="phone-icon.png"  transform="matrix(1 0 0 1 -0.1378 -0.2259)">
</image>
<g>
	<g transform="translate(0.000000,512.000000) scale(0.100000,-0.100000)">
		<path class="st0" d="M5.6,5119.8c-1.4-0.4-3.1-1.7-3.9-3.2c-0.7-1.2-0.8-1.6-0.8-3.7c-0.1-3,0.3-10.3,0.9-15.1
			c2.9-22.6,12.1-43.5,27.1-61.4c2.4-2.9,9.1-9.6,12.2-12.4c10.3-9.1,22.1-16.3,34.8-21.3c11.7-4.6,23.5-7.2,36.5-8
			c6.4-0.4,8.9-0.2,10.5,0.7c1.3,0.7,2,1.5,2.9,3c0.4,0.8,0.5,1.7,0.5,14.3c0.1,15.7,0.1,15.4-2,17.4c-0.7,0.7-1.7,1.4-2.3,1.5
			c-0.5,0.2-3.1,0.4-5.8,0.5c-9.3,0.4-15.5,1.6-23,4.5c-1.3,0.5-2.5,0.4-4.1-0.4c-0.6-0.3-4.2-3.7-9.1-8.6c-6.4-6.3-8.2-8.1-8.6-7.9
			c-0.8,0.3-6.3,3.7-9.3,5.6c-11.7,7.8-21.5,17.3-29.2,28.2c-2.7,3.9-7,11.1-7,11.8c0,0.1,3.6,3.6,7.9,7.8c8.4,8.1,9,8.8,9.5,11.4
			c0.3,1.5,0.3,1.6-1.1,6.5c-1.9,6.6-2.9,12.7-3.2,20.1c-0.2,4.4-0.6,5.5-2.3,7c-1.9,1.7-1.9,1.7-17.1,1.7
			C12.5,5120,6,5119.9,5.6,5119.8z"/>
	</g>
</g>
</svg>
